<svg width="1920" height="1080" viewBox="0 0 1920 1080" fill="none" xmlns="http://www.w3.org/2000/svg">
  <defs>
    <linearGradient id="heroGradient" x1="0%" y1="0%" x2="100%" y2="100%">
      <stop offset="0%" style="stop-color:#dbeafe;stop-opacity:0.3" />
      <stop offset="50%" style="stop-color:#e0e7ff;stop-opacity:0.2" />
      <stop offset="100%" style="stop-color:#f3e8ff;stop-opacity:0.3" />
    </linearGradient>
  </defs>
  
  <!-- Background -->
  <rect width="1920" height="1080" fill="url(#heroGradient)"/>
  
  <!-- Abstract shapes -->
  <circle cx="200" cy="200" r="150" fill="#2563eb" opacity="0.05"/>
  <circle cx="1600" cy="300" r="200" fill="#7c3aed" opacity="0.05"/>
  <circle cx="400" cy="800" r="180" fill="#059669" opacity="0.05"/>
  
  <!-- Grid pattern -->
  <g opacity="0.1">
    <line x1="0" y1="0" x2="1920" y2="0" stroke="#2563eb" stroke-width="1"/>
    <line x1="0" y1="200" x2="1920" y2="200" stroke="#2563eb" stroke-width="1"/>
    <line x1="0" y1="400" x2="1920" y2="400" stroke="#2563eb" stroke-width="1"/>
    <line x1="0" y1="600" x2="1920" y2="600" stroke="#2563eb" stroke-width="1"/>
    <line x1="0" y1="800" x2="1920" y2="800" stroke="#2563eb" stroke-width="1"/>
    <line x1="0" y1="1000" x2="1920" y2="1000" stroke="#2563eb" stroke-width="1"/>
    
    <line x1="0" y1="0" x2="0" y2="1080" stroke="#2563eb" stroke-width="1"/>
    <line x1="200" y1="0" x2="200" y2="1080" stroke="#2563eb" stroke-width="1"/>
    <line x1="400" y1="0" x2="400" y2="1080" stroke="#2563eb" stroke-width="1"/>
    <line x1="600" y1="0" x2="600" y2="1080" stroke="#2563eb" stroke-width="1"/>
    <line x1="800" y1="0" x2="800" y2="1080" stroke="#2563eb" stroke-width="1"/>
    <line x1="1000" y1="0" x2="1000" y2="1080" stroke="#2563eb" stroke-width="1"/>
    <line x1="1200" y1="0" x2="1200" y2="1080" stroke="#2563eb" stroke-width="1"/>
    <line x1="1400" y1="0" x2="1400" y2="1080" stroke="#2563eb" stroke-width="1"/>
    <line x1="1600" y1="0" x2="1600" y2="1080" stroke="#2563eb" stroke-width="1"/>
    <line x1="1800" y1="0" x2="1800" y2="1080" stroke="#2563eb" stroke-width="1"/>
  </g>
  
  <!-- Floating elements -->
  <circle cx="300" cy="400" r="8" fill="#2563eb" opacity="0.3"/>
  <circle cx="1500" cy="600" r="12" fill="#7c3aed" opacity="0.3"/>
  <circle cx="800" cy="200" r="6" fill="#059669" opacity="0.3"/>
  <circle cx="1200" cy="800" r="10" fill="#dc2626" opacity="0.3"/>
</svg>
